<?xml version="1.0" standalone="no"?>
<!DOCTYPE svg PUBLIC "-//W3C//DTD SVG 1.1//EN" "http://www.w3.org/Graphics/SVG/1.1/DTD/svg11.dtd">
<svg version="1.1" xmlns="http://www.w3.org/2000/svg" viewBox="0 0 868.0001220703125 559.9063798737386" width="868.0001220703125" height="559.9063798737386"><!-- svg-source:excalidraw --><metadata></metadata><defs><style class="style-fonts">
      @font-face { font-family: Excalifont; src: url(https://esm.sh/@excalidraw/excalidraw/dist/prod/fonts/Excalifont/Excalifont-Regular-a88b72a24fb54c9f94e3b5fdaa7481c9.woff2); }</style></defs><rect x="0" y="0" width="868.0001220703125" height="559.9063798737386" fill="#ffffff"></rect><g stroke-opacity="0.5" fill-opacity="0.5" stroke-linecap="round" transform="translate(602.0000610351562 173.49998474121094) rotate(0 47.666656494140625 23)"><path d="M11.5 0 C37.64 2.47, 61.16 2.62, 83.83 0 C88.94 -0.74, 96.9 5.09, 95.33 11.5 C92.59 19.71, 97.27 24.61, 95.33 34.5 C94.04 45.54, 88.3 43.73, 83.83 46 C69.83 42.66, 56.46 41.78, 11.5 46 C4.57 42.58, -2.44 43.16, 0 34.5 C-2.78 27.07, -1.1 23.11, 0 11.5 C-1.56 4.73, 5.66 -2.67, 11.5 0" stroke="none" stroke-width="0" fill="#b2f2bb"></path><path d="M11.5 0 C33.88 -1.24, 58.93 -2.24, 83.83 0 M11.5 0 C35.53 -0.14, 57.65 1.49, 83.83 0 M83.83 0 C92.91 0.93, 96.94 5.47, 95.33 11.5 M83.83 0 C90.84 -1.83, 94.47 3.48, 95.33 11.5 M95.33 11.5 C93.57 17.86, 94.8 23.95, 95.33 34.5 M95.33 11.5 C94.71 20.43, 94.83 29.93, 95.33 34.5 M95.33 34.5 C97.08 40.17, 90.14 44.32, 83.83 46 M95.33 34.5 C94.54 43.08, 93.46 44.78, 83.83 46 M83.83 46 C64.03 47.62, 42.25 45.99, 11.5 46 M83.83 46 C66.34 44.79, 46.75 45.67, 11.5 46 M11.5 46 C5.33 46.06, 1.93 42.94, 0 34.5 M11.5 46 C5.05 45.06, 1.7 41.93, 0 34.5 M0 34.5 C-1.26 26.16, 1.05 17.38, 0 11.5 M0 34.5 C-0.85 29.16, 0.21 23.05, 0 11.5 M0 11.5 C-0.01 2.45, 5.63 0.92, 11.5 0 M0 11.5 C1.94 5.21, 3.81 -1.28, 11.5 0" stroke="#2f9e44" stroke-width="2" fill="none"></path></g><g transform="translate(183.33340454101562 93.49998474121094) rotate(0 33.349998474121094 17.5)"><text x="0" y="24.668" font-family="Excalifont, Xiaolai, Segoe UI Emoji" font-size="28px" fill="#1e1e1e" text-anchor="start" style="white-space: pre;" direction="ltr" dominant-baseline="alphabetic">Code</text></g><g stroke-linecap="round"><g transform="translate(263.3333740234375 113.49998474121094) rotate(0 153.66665649414062 0.6666641235351562)"><path d="M-1.1 -0.52 C50.09 -0.26, 255.17 1.99, 306.68 2.48 M0.53 1.82 C52.15 1.69, 257.88 1.15, 309.05 0.95" stroke="#1e1e1e" stroke-width="2" fill="none"></path></g><g transform="translate(263.3333740234375 113.49998474121094) rotate(0 153.66665649414062 0.6666641235351562)"><path d="M285.59 9.58 C290.81 6.44, 299.75 6.35, 309.05 0.95 M285.59 9.58 C293.78 6.56, 303.14 2.65, 309.05 0.95" stroke="#1e1e1e" stroke-width="2" fill="none"></path></g><g transform="translate(263.3333740234375 113.49998474121094) rotate(0 153.66665649414062 0.6666641235351562)"><path d="M285.53 -7.52 C290.9 -6.16, 299.86 -1.77, 309.05 0.95 M285.53 -7.52 C293.81 -3.87, 303.19 -1.1, 309.05 0.95" stroke="#1e1e1e" stroke-width="2" fill="none"></path></g></g><mask></mask><g transform="translate(346.66668701171875 88.16664123535156) rotate(0 34.57500076293945 25)"><text x="0" y="17.619999999999997" font-family="Excalifont, Xiaolai, Segoe UI Emoji" font-size="20px" fill="#1e1e1e" text-anchor="start" style="white-space: pre;" direction="ltr" dominant-baseline="alphabetic">ANTLR</text><text x="0" y="42.62" font-family="Excalifont, Xiaolai, Segoe UI Emoji" font-size="20px" fill="#1e1e1e" text-anchor="start" style="white-space: pre;" direction="ltr" dominant-baseline="alphabetic"></text></g><g transform="translate(413.3333740234375 57.49998474121094) rotate(0 55.025001525878906 20)"><text x="0" y="14.096" font-family="Excalifont, Xiaolai, Segoe UI Emoji" font-size="16px" fill="#1e1e1e" text-anchor="start" style="white-space: pre;" direction="ltr" dominant-baseline="alphabetic">error listenser</text><text x="0" y="34.096000000000004" font-family="Excalifont, Xiaolai, Segoe UI Emoji" font-size="16px" fill="#1e1e1e" text-anchor="start" style="white-space: pre;" direction="ltr" dominant-baseline="alphabetic"></text></g><g stroke-linecap="round"><g transform="translate(402.00006103515625 64.16664123535156) rotate(0 -12.333343505859375 11.000007629394531)"><path d="M0.17 -0.38 C-3.93 0.01, -20.42 -1.36, -24.32 2.34 C-28.22 6.04, -23.42 18.63, -23.23 21.84 M-0.4 0.62 C-4.58 1.08, -20.72 -0.75, -24.57 2.87 C-28.42 6.5, -23.79 19.19, -23.52 22.36" stroke="#1e1e1e" stroke-width="2" fill="none"></path></g><g transform="translate(402.00006103515625 64.16664123535156) rotate(0 -12.333343505859375 11.000007629394531)"><path d="M-28.7 14.17 C-27.17 17.4, -25.27 20.12, -23.52 22.36 M-28.7 14.17 C-27.14 16.54, -25.93 18.69, -23.52 22.36" stroke="#1e1e1e" stroke-width="2" fill="none"></path></g><g transform="translate(402.00006103515625 64.16664123535156) rotate(0 -12.333343505859375 11.000007629394531)"><path d="M-22.22 12.75 C-23.02 16.5, -23.44 19.73, -23.52 22.36 M-22.22 12.75 C-22.42 15.49, -22.96 18.01, -23.52 22.36" stroke="#1e1e1e" stroke-width="2" fill="none"></path></g></g><mask></mask><g transform="translate(682.6666870117188 10) rotate(0 30.3125 17.5)"><text x="0" y="24.668" font-family="Excalifont, Xiaolai, Segoe UI Emoji" font-size="28px" fill="#1e1e1e" text-anchor="start" style="white-space: pre;" direction="ltr" dominant-baseline="alphabetic">AST</text></g><g stroke-linecap="round" transform="translate(683.2504504505014 55.24219399118738) rotate(0 26.77304548277914 15)"><path d="M0 0 C10.74 1.22, 22.24 -1.3, 53.55 0 M0 0 C14.35 -0.24, 27.65 -1.31, 53.55 0 M53.55 0 C52.3 11.15, 55.34 22.91, 53.55 30 M53.55 0 C53.31 11.72, 53.73 22.86, 53.55 30 M53.55 30 C36.42 28.89, 18.47 30.18, 0 30 M53.55 30 C40.89 30.44, 27.71 31.04, 0 30 M0 30 C-1.95 20.78, -0.08 9.43, 0 0 M0 30 C0.02 18.69, 0.21 7.59, 0 0" stroke="#1e1e1e" stroke-width="2" fill="none"></path></g><g transform="translate(693.2359955518108 60.24219399118738) rotate(0 16.787500381469727 10)"><text x="16.787500381469727" y="14.096" font-family="Excalifont, Xiaolai, Segoe UI Emoji" font-size="16px" fill="#1e1e1e" text-anchor="middle" style="white-space: pre;" direction="ltr" dominant-baseline="alphabetic">prog</text></g><g stroke-linecap="round" transform="translate(608.6007796910733 116.72668906736237) rotate(0 34.2079844701974 15)"><path d="M0 0 C25.38 -0.91, 54.26 2.04, 68.42 0 M0 0 C22.25 0.67, 43.96 -0.02, 68.42 0 M68.42 0 C70.16 8.46, 66.71 19.86, 68.42 30 M68.42 0 C68.67 9.69, 68.47 20.91, 68.42 30 M68.42 30 C50.4 31.48, 35.64 30.77, 0 30 M68.42 30 C46.75 31.19, 25.61 29.66, 0 30 M0 30 C1.33 22.6, -1.57 12.05, 0 0 M0 30 C-1.06 22.53, 0.56 14.14, 0 0" stroke="#1e1e1e" stroke-width="2" fill="none"></path></g><g transform="translate(620.958763779801 121.72668906736237) rotate(0 21.850000381469727 10)"><text x="21.850000381469727" y="14.096" font-family="Excalifont, Xiaolai, Segoe UI Emoji" font-size="16px" fill="#1e1e1e" text-anchor="middle" style="white-space: pre;" direction="ltr" dominant-baseline="alphabetic">stmt1</text></g><g stroke-linecap="round" transform="translate(746.7673654101911 112.57102924012315) rotate(0 35.2079844701974 15)"><path d="M0 0 C17.28 0.83, 32.06 0.39, 70.42 0 M0 0 C21.88 1.33, 44.06 1.18, 70.42 0 M70.42 0 C71.15 7.59, 71.01 13.82, 70.42 30 M70.42 0 C69.86 5.68, 70.5 12.32, 70.42 30 M70.42 30 C44.71 30.58, 19.81 30.51, 0 30 M70.42 30 C44.72 29.44, 17.97 30.06, 0 30 M0 30 C-0.34 19.19, -0.49 4.57, 0 0 M0 30 C0.64 18.1, 0.42 7.29, 0 0" stroke="#1e1e1e" stroke-width="2" fill="none"></path></g><g transform="translate(757.9378494989188 117.57102924012315) rotate(0 24.03750038146967 10)"><text x="24.037500381469727" y="14.096" font-family="Excalifont, Xiaolai, Segoe UI Emoji" font-size="16px" fill="#1e1e1e" text-anchor="middle" style="white-space: pre;" direction="ltr" dominant-baseline="alphabetic">stmt2</text></g><g stroke-linecap="round" transform="translate(607.4667663574219 181.68895908015054) rotate(0 41.82237692463889 15)"><path d="M0 0 C31.27 0.53, 61.02 0.2, 83.64 0 M0 0 C31.77 -1.6, 65.02 -0.1, 83.64 0 M83.64 0 C82.08 10.07, 83.42 19.36, 83.64 30 M83.64 0 C84.38 7.17, 84.02 13.56, 83.64 30 M83.64 30 C58.45 31.7, 28.87 30.29, 0 30 M83.64 30 C58.99 29.79, 32.77 30.28, 0 30 M0 30 C1.47 20.94, 0.98 10.75, 0 0 M0 30 C0.39 24.38, -0.77 17.03, 0 0" stroke="#1e1e1e" stroke-width="2" fill="none"></path></g><g transform="translate(619.5891425191213 186.68895908015054) rotate(0 29.700000762939453 10)"><text x="29.700000762939453" y="14.096" font-family="Excalifont, Xiaolai, Segoe UI Emoji" font-size="16px" fill="#1e1e1e" text-anchor="middle" style="white-space: pre;" direction="ltr" dominant-baseline="alphabetic">if_data</text></g><g stroke-linecap="round"><g transform="translate(680.8367086346309 82.08907908748944) rotate(0 -9.911874208792426 11.662470123987106)"><path d="M-0.04 -0.1 C-3.4 3.8, -16.83 19.05, -20.12 22.9 M-0.72 -0.62 C-3.91 3.37, -15.81 19.37, -19.03 23.38" stroke="#1e1e1e" stroke-width="2" fill="none"></path></g><g transform="translate(680.8367086346309 82.08907908748944) rotate(0 -9.911874208792426 11.662470123987106)"><path d="M-14.41 8.79 C-16.05 12.95, -17.96 18.01, -19.03 23.38 M-14.41 8.79 C-15.35 12.42, -16.54 16.19, -19.03 23.38" stroke="#1e1e1e" stroke-width="2" fill="none"></path></g><g transform="translate(680.8367086346309 82.08907908748944) rotate(0 -9.911874208792426 11.662470123987106)"><path d="M-6.11 15.18 C-10.33 17.34, -14.83 20.4, -19.03 23.38 M-6.11 15.18 C-9.09 17.28, -12.29 19.49, -19.03 23.38" stroke="#1e1e1e" stroke-width="2" fill="none"></path></g></g><mask></mask><g stroke-linecap="round"><g transform="translate(745.7221084348242 80.92945108691396) rotate(0 13.271243727367505 12.654132582464001)"><path d="M-0.29 -0.42 C4.15 3.76, 22.07 20.66, 26.6 24.99 M0.56 0.55 C4.93 4.8, 21.83 21.52, 26.2 25.53" stroke="#1e1e1e" stroke-width="2" fill="none"></path></g><g transform="translate(745.7221084348242 80.92945108691396) rotate(0 13.271243727367505 12.654132582464001)"><path d="M9.42 18.14 C13.62 20.45, 18.72 23.16, 26.2 25.53 M9.42 18.14 C15.36 21.05, 21.19 23.58, 26.2 25.53" stroke="#1e1e1e" stroke-width="2" fill="none"></path></g><g transform="translate(745.7221084348242 80.92945108691396) rotate(0 13.271243727367505 12.654132582464001)"><path d="M18.1 9.08 C19.75 14.02, 22.31 19.38, 26.2 25.53 M18.1 9.08 C21.03 15.16, 23.83 20.84, 26.2 25.53" stroke="#1e1e1e" stroke-width="2" fill="none"></path></g></g><mask></mask><g stroke-linecap="round"><g transform="translate(639.8175167953934 147.72668906736249) rotate(0 -2.6101808640781883 15.481135006394027)"><path d="M0.06 -0.31 C-0.7 4.96, -3.98 26, -4.83 31.23 M-0.57 0.71 C-1.34 5.86, -4.28 25.23, -5.07 30.4" stroke="#1e1e1e" stroke-width="2" fill="none"></path></g><g transform="translate(639.8175167953934 147.72668906736249) rotate(0 -2.6101808640781883 15.481135006394027)"><path d="M-8.16 15.01 C-7.91 19.35, -6.31 22.87, -5.07 30.4 M-8.16 15.01 C-7.11 20.16, -5.86 24.46, -5.07 30.4" stroke="#1e1e1e" stroke-width="2" fill="none"></path></g><g transform="translate(639.8175167953934 147.72668906736249) rotate(0 -2.6101808640781883 15.481135006394027)"><path d="M2.46 16.62 C0.1 20.57, -0.93 23.69, -5.07 30.4 M2.46 16.62 C0.12 21.3, -2.01 25.09, -5.07 30.4" stroke="#1e1e1e" stroke-width="2" fill="none"></path></g></g><mask></mask><g transform="translate(473.4675160959798 175.80248094960666) rotate(0 45.01250076293945 12.5)"><text x="0" y="17.619999999999997" font-family="Excalifont, Xiaolai, Segoe UI Emoji" font-size="20px" fill="#1e1e1e" text-anchor="start" style="white-space: pre;" direction="ltr" dominant-baseline="alphabetic">WyVisitor</text></g><g stroke-linecap="round"><g transform="translate(574.1508313730794 188.61446428841316) rotate(0 12.591271325179036 0.5075870798976325)"><path d="M0.51 0.35 C4.71 0.64, 21.07 1.51, 25.17 1.56 M0.11 0.06 C4.25 0.22, 20.64 0.7, 24.73 0.87" stroke="#1e1e1e" stroke-width="2" fill="none"></path></g><g transform="translate(574.1508313730794 188.61446428841316) rotate(0 12.591271325179036 0.5075870798976325)"><path d="M12.75 4.77 C16.61 3.57, 20.29 2.34, 24.73 0.87 M12.75 4.77 C15.75 3.57, 18.1 2.79, 24.73 0.87" stroke="#1e1e1e" stroke-width="2" fill="none"></path></g><g transform="translate(574.1508313730794 188.61446428841316) rotate(0 12.591271325179036 0.5075870798976325)"><path d="M13.05 -3.85 C16.81 -2.56, 20.4 -1.3, 24.73 0.87 M13.05 -3.85 C15.96 -3.03, 18.24 -1.79, 24.73 0.87" stroke="#1e1e1e" stroke-width="2" fill="none"></path></g></g><mask></mask><g mask="url(#mask-awrrDxMZj9QbF0LXABtxg)" stroke-linecap="round"><g transform="translate(465.4675160959797 187.28460798232396) rotate(0 -52.55817423740518 3.443363048500146)"><path d="M-0.98 -0.79 C-18.61 0.62, -89.01 6.24, -106.29 7.66 M0.71 1.41 C-16.53 2.55, -86.55 5.21, -104.19 5.95" stroke="#1e1e1e" stroke-width="2" fill="none"></path></g><g transform="translate(465.4675160959797 187.28460798232396) rotate(0 -52.55817423740518 3.443363048500146)"><path d="M-81.06 -3.54 C-88.44 -3.22, -91.83 2.01, -104.19 5.95 M-81.06 -3.54 C-90.59 0.86, -97.98 3.28, -104.19 5.95" stroke="#1e1e1e" stroke-width="2" fill="none"></path></g><g transform="translate(465.4675160959797 187.28460798232396) rotate(0 -52.55817423740518 3.443363048500146)"><path d="M-80.37 13.55 C-87.82 9.43, -91.39 10.23, -104.19 5.95 M-80.37 13.55 C-90.23 11.61, -97.89 7.7, -104.19 5.95" stroke="#1e1e1e" stroke-width="2" fill="none"></path></g></g><mask id="mask-awrrDxMZj9QbF0LXABtxg"><rect x="0" y="0" fill="#fff" width="670.5838645707901" height="294.17133407932425"></rect><rect x="396.671842621514" y="178.2279710308241" fill="#000" width="32.474998474121094" height="25" opacity="1"></rect></mask><g transform="translate(396.671842621514 178.2279710308241) rotate(0 16.00511027679778 12.49303222112357)"><text x="16.237499237060547" y="17.619999999999997" font-family="Excalifont, Xiaolai, Segoe UI Emoji" font-size="20px" fill="#1e1e1e" text-anchor="middle" style="white-space: pre;" direction="ltr" dominant-baseline="alphabetic">gen</text></g><g stroke-linecap="round" transform="translate(188.66668701171875 181.50001525878906) rotate(0 81.66665649414062 35.666656494140625)"><path d="M17.83 0 C66.11 -2.27, 114.36 0.34, 145.5 0 M17.83 0 C52.54 1.17, 88.91 0.86, 145.5 0 M145.5 0 C157.5 0.08, 162.44 6.03, 163.33 17.83 M145.5 0 C159.05 1.02, 165.5 6.26, 163.33 17.83 M163.33 17.83 C164.43 32.84, 161.43 45.85, 163.33 53.5 M163.33 17.83 C163.01 31.94, 163.6 44.02, 163.33 53.5 M163.33 53.5 C165.33 66.28, 158.83 72.54, 145.5 71.33 M163.33 53.5 C165.52 66.29, 155.58 69.93, 145.5 71.33 M145.5 71.33 C107.78 71.7, 70.4 71.33, 17.83 71.33 M145.5 71.33 C108.28 69.65, 72.89 70.67, 17.83 71.33 M17.83 71.33 C4.56 69.4, -1.91 64.09, 0 53.5 M17.83 71.33 C6.66 71.24, -1.65 63.32, 0 53.5 M0 53.5 C-0.2 44.27, -0.41 36.57, 0 17.83 M0 53.5 C-0.34 45.82, -0.04 36.64, 0 17.83 M0 17.83 C-0.39 5.41, 4.85 -1.39, 17.83 0 M0 17.83 C1.52 5.77, 5.49 -1.22, 17.83 0" stroke="#1e1e1e" stroke-width="2" fill="none"></path></g><g stroke-linecap="round" transform="translate(202.66671752929688 202.1667022705078) rotate(0 69.33332824707031 40.66667175292969)"><path d="M20.33 0 C44.37 2.1, 60.31 -0.07, 118.33 0 C131.49 0.04, 138.86 3.67, 138.67 20.33 C135.52 34.24, 140.3 43.72, 138.67 61 C138.9 75.05, 134.48 78.61, 118.33 81.33 C92.45 83.3, 65.69 77.77, 20.33 81.33 C4.82 77.79, -2 77.51, 0 61 C-0.28 53.47, 2.32 39.99, 0 20.33 C3.01 9.81, 3.74 1.84, 20.33 0" stroke="none" stroke-width="0" fill="#ffffff"></path><path d="M20.33 0 C60.74 1.2, 99.51 -2.28, 118.33 0 M20.33 0 C43.78 -0.69, 67.31 -0.93, 118.33 0 M118.33 0 C131.83 -0.26, 137.09 5.65, 138.67 20.33 M118.33 0 C130.5 -2.22, 140.08 6.91, 138.67 20.33 M138.67 20.33 C136.98 30.34, 138.19 37.66, 138.67 61 M138.67 20.33 C137.73 28.6, 138.55 37.03, 138.67 61 M138.67 61 C140.38 73.15, 129.95 81.81, 118.33 81.33 M138.67 61 C137.09 75.75, 131.01 80.27, 118.33 81.33 M118.33 81.33 C89.46 82.12, 63.21 80.4, 20.33 81.33 M118.33 81.33 C94.65 80.17, 70.26 81.46, 20.33 81.33 M20.33 81.33 C4.99 80.2, 0.74 76.26, 0 61 M20.33 81.33 C5.94 83.17, -1.88 76.03, 0 61 M0 61 C2.01 49.44, -0.36 37.68, 0 20.33 M0 61 C-0.35 50.5, 0.33 39.49, 0 20.33 M0 20.33 C0.83 7.73, 5.19 -1.2, 20.33 0 M0 20.33 C-1.2 8.08, 5.37 0.66, 20.33 0" stroke="#1e1e1e" stroke-width="2" fill="none"></path></g><g transform="translate(212.53754425048828 230.3333740234375) rotate(0 59.462501525878906 12.5)"><text x="59.462501525878906" y="17.619999999999997" font-family="Excalifont, Xiaolai, Segoe UI Emoji" font-size="20px" fill="#1e1e1e" text-anchor="middle" style="white-space: pre;" direction="ltr" dominant-baseline="alphabetic">WyBytecode</text></g><g transform="translate(169.33340454101562 159.49998474121094) rotate(0 96.88749694824219 12.5)"><text x="0" y="17.619999999999997" font-family="Excalifont, Xiaolai, Segoe UI Emoji" font-size="20px" fill="#1e1e1e" text-anchor="start" style="white-space: pre;" direction="ltr" dominant-baseline="alphabetic">Compile Environment</text></g><g stroke-linecap="round" transform="translate(183.3332977294922 366.8333435058594) rotate(0 69.33332824707031 40.66667175292969)"><path d="M20.33 0 C43.86 0.33, 68.36 3.32, 118.33 0 C130.77 1.46, 138.53 7.63, 138.67 20.33 C139.14 31.44, 139.54 43.14, 138.67 61 C135.96 73.51, 133.77 79.82, 118.33 81.33 C94.07 82.41, 63.85 84.66, 20.33 81.33 C9.43 84.22, 2.35 76.28, 0 61 C-3.54 51.39, -4.16 31.86, 0 20.33 C1.54 5.09, 7.22 -1.91, 20.33 0" stroke="none" stroke-width="0" fill="#ffffff"></path><path d="M20.33 0 C51.93 -2.69, 85.6 1, 118.33 0 M20.33 0 C43.46 1.01, 68.76 0.8, 118.33 0 M118.33 0 C130.57 -1.73, 136.95 5.51, 138.67 20.33 M118.33 0 C130.4 -0.09, 136.86 5.99, 138.67 20.33 M138.67 20.33 C137.8 28.07, 138.54 40.87, 138.67 61 M138.67 20.33 C137.81 32.5, 138 44.77, 138.67 61 M138.67 61 C138.06 74.35, 130.15 81.47, 118.33 81.33 M138.67 61 C138.33 73.86, 131.74 82.53, 118.33 81.33 M118.33 81.33 C84.33 84.11, 50.77 83.79, 20.33 81.33 M118.33 81.33 C88.06 81.75, 56.73 81.67, 20.33 81.33 M20.33 81.33 C8 82.53, -0.53 75.38, 0 61 M20.33 81.33 C8.53 80.52, -2.01 72.3, 0 61 M0 61 C-1.12 48.15, 1.13 37.71, 0 20.33 M0 61 C-0.68 47.21, 0.6 33.9, 0 20.33 M0 20.33 C-0.52 8.71, 6.58 -1.92, 20.33 0 M0 20.33 C-1.93 6.86, 6.4 1.4, 20.33 0" stroke="#1e1e1e" stroke-width="2" fill="none"></path></g><g transform="translate(193.2041244506836 395.00001525878906) rotate(0 59.462501525878906 12.5)"><text x="59.462501525878906" y="17.619999999999997" font-family="Excalifont, Xiaolai, Segoe UI Emoji" font-size="20px" fill="#1e1e1e" text-anchor="middle" style="white-space: pre;" direction="ltr" dominant-baseline="alphabetic">WyBytecode</text></g><g transform="translate(10 65.49998474121094) rotate(0 61.82500076293945 22.5)"><text x="0" y="31.716" font-family="Excalifont, Xiaolai, Segoe UI Emoji" font-size="36px" fill="#1e1e1e" text-anchor="start" style="white-space: pre;" direction="ltr" dominant-baseline="alphabetic">Compile</text></g><g stroke-linecap="round"><g transform="translate(138.666748046875 338.8333282470703) rotate(0 359.66668701171875 0)"><path d="M0 0 C119.89 0, 599.44 0, 719.33 0" stroke="#1e1e1e" stroke-width="2.5" fill="none" stroke-dasharray="8 10"></path></g></g><mask></mask><g stroke-linecap="round"><g transform="translate(330.2248399992677 404.8400390025266) rotate(0 30.299315484776855 -9.543453800672012)"><path d="M0.55 0.24 C10.77 -2.67, 50.29 -14.65, 60.35 -17.9 M-0.63 -0.67 C9.5 -3.85, 49.12 -16.51, 59.27 -19.4" stroke="#1e1e1e" stroke-width="2" fill="none"></path></g><g transform="translate(330.2248399992677 404.8400390025266) rotate(0 30.299315484776855 -9.543453800672012)"><path d="M39.29 -4.38 C44.11 -8.17, 50.05 -10.56, 59.27 -19.4 M39.29 -4.38 C45.71 -9.25, 51.54 -12.97, 59.27 -19.4" stroke="#1e1e1e" stroke-width="2" fill="none"></path></g><g transform="translate(330.2248399992677 404.8400390025266) rotate(0 30.299315484776855 -9.543453800672012)"><path d="M34.31 -20.74 C40.16 -20.98, 47.18 -19.79, 59.27 -19.4 M34.31 -20.74 C42.04 -20.89, 49.3 -19.92, 59.27 -19.4" stroke="#1e1e1e" stroke-width="2" fill="none"></path></g></g><mask></mask><g transform="translate(399.58153386047115 360.0616046495253) rotate(0 60.224998474121094 30)"><text x="0" y="14.096" font-family="Excalifont, Xiaolai, Segoe UI Emoji" font-size="16px" fill="#1e1e1e" text-anchor="start" style="white-space: pre;" direction="ltr" dominant-baseline="alphabetic">constant table</text><text x="0" y="34.096000000000004" font-family="Excalifont, Xiaolai, Segoe UI Emoji" font-size="16px" fill="#1e1e1e" text-anchor="start" style="white-space: pre;" direction="ltr" dominant-baseline="alphabetic">Identifier table</text><text x="0" y="54.096000000000004" font-family="Excalifont, Xiaolai, Segoe UI Emoji" font-size="16px" fill="#1e1e1e" text-anchor="start" style="white-space: pre;" direction="ltr" dominant-baseline="alphabetic">label table</text></g><g stroke-linecap="round"><g transform="translate(330.5691203657159 420.247866229873) rotate(0 29.24107244512345 17.49578044645159)"><path d="M-1.03 -0.03 C8.74 5.83, 49.47 28.16, 59.51 34.13 M0.64 -1.1 C10.26 4.99, 49.4 29.39, 59.11 35.21" stroke="#1e1e1e" stroke-width="2" fill="none"></path></g><g transform="translate(330.5691203657159 420.247866229873) rotate(0 29.24107244512345 17.49578044645159)"><path d="M34.61 30.21 C43.74 34.02, 51.57 35.45, 59.11 35.21 M34.61 30.21 C44.23 31.6, 52.78 33.41, 59.11 35.21" stroke="#1e1e1e" stroke-width="2" fill="none"></path></g><g transform="translate(330.5691203657159 420.247866229873) rotate(0 29.24107244512345 17.49578044645159)"><path d="M43.55 15.64 C49.18 24.86, 53.65 31.77, 59.11 35.21 M43.55 15.64 C49.8 22.36, 55.1 29.46, 59.11 35.21" stroke="#1e1e1e" stroke-width="2" fill="none"></path></g></g><mask></mask><g stroke-linecap="round" transform="translate(403.8175177557473 449.19853182349516) rotate(0 38.758331298828125 50.35392402512173)"><path d="M0 0 C18.86 -2.4, 40.37 1.41, 77.52 0 M0 0 C19.04 0.57, 38.05 -0.65, 77.52 0 M77.52 0 C78.08 38.27, 78.75 73.86, 77.52 100.71 M77.52 0 C77.43 36.11, 77.43 73.25, 77.52 100.71 M77.52 100.71 C56.33 99.23, 30.68 98.42, 0 100.71 M77.52 100.71 C58.97 102.33, 41.19 101.1, 0 100.71 M0 100.71 C1.05 74.72, -2.38 53.11, 0 0 M0 100.71 C-0.74 66.84, -0.2 30.94, 0 0" stroke="#1e1e1e" stroke-width="2" fill="none"></path></g><g stroke-linecap="round"><g transform="translate(403.8175177557473 473.80083865041513) rotate(0 38.758331298828125 0)"><path d="M0 0 C30.35 2.67, 56.31 1.48, 77.52 0 M0 0 C23.33 -1.07, 48.85 0.3, 77.52 0" stroke="#000" stroke-width="1" fill="none"></path></g></g><mask></mask><g stroke-linecap="round"><g transform="translate(403.8175177557473 543.1008072892245) rotate(0 38.758331298828125 0)"><path d="M0 0 C15.05 0, 32.3 -1.52, 77.52 0 M0 0 C28.93 1.25, 56.64 0.31, 77.52 0" stroke="#000" stroke-width="1" fill="none"></path></g></g><mask></mask><g transform="translate(408.3767256085813 452.11926932502706) rotate(0 31.537500381469727 7.598679754723378)"><text x="0" y="10.71109898225808" font-family="Excalifont, Xiaolai, Segoe UI Emoji" font-size="12.157887607557413px" fill="#1e1e1e" text-anchor="start" style="white-space: pre;" direction="ltr" dominant-baseline="alphabetic">Bytecodes</text></g><g transform="translate(408.3767256085813 479.27188807381594) rotate(0 16.31436520149782 7.598679754723378)"><text x="0" y="10.71109898225808" font-family="Excalifont, Xiaolai, Segoe UI Emoji" font-size="12.157887607557413px" fill="#1e1e1e" text-anchor="start" style="white-space: pre;" direction="ltr" dominant-baseline="alphabetic">code1</text></g><g transform="translate(408.3767256085813 499.1297742580705) rotate(0 17.97847676346214 7.598679754723378)"><text x="0" y="10.71109898225808" font-family="Excalifont, Xiaolai, Segoe UI Emoji" font-size="12.157887607557413px" fill="#1e1e1e" text-anchor="start" style="white-space: pre;" direction="ltr" dominant-baseline="alphabetic">code2</text></g><g transform="translate(407.7100996320188 518.3210344657624) rotate(0 17.412500381469727 7.598679754723378)"><text x="0" y="10.711098982258083" font-family="Excalifont, Xiaolai, Segoe UI Emoji" font-size="12.157887607557416px" fill="#1e1e1e" text-anchor="start" style="white-space: pre;" direction="ltr" dominant-baseline="alphabetic">code3</text></g><g stroke-linecap="round"><g transform="translate(454.2865976354029 475.8854871884837) rotate(0 -0.666656494140625 33.66668701171875)"><path d="M0.62 -0.45 C0.22 10.8, -1.63 56.06, -1.95 67.22 M-0.52 -1.73 C-0.55 9.74, 0.7 57.18, 0.44 68.71" stroke="#1e1e1e" stroke-width="2" fill="none"></path></g></g><mask></mask><g transform="translate(463.44510964605274 476.1501402541304) rotate(0 5.587500095367432 30)"><text x="0" y="14.096" font-family="Excalifont, Xiaolai, Segoe UI Emoji" font-size="16px" fill="#1e1e1e" text-anchor="start" style="white-space: pre;" direction="ltr" dominant-baseline="alphabetic">1</text><text x="0" y="34.096000000000004" font-family="Excalifont, Xiaolai, Segoe UI Emoji" font-size="16px" fill="#1e1e1e" text-anchor="start" style="white-space: pre;" direction="ltr" dominant-baseline="alphabetic">3</text><text x="0" y="54.096000000000004" font-family="Excalifont, Xiaolai, Segoe UI Emoji" font-size="16px" fill="#1e1e1e" text-anchor="start" style="white-space: pre;" direction="ltr" dominant-baseline="alphabetic">2</text></g><g stroke-linecap="round"><g transform="translate(484.65552116083563 477.44255165519564) rotate(0 29.283989143638053 -39.19460060912513)"><path d="M0.99 -0.87 C10.71 -9.03, 52.69 -35.64, 58.91 -48.44 C65.13 -61.24, 41.77 -72.68, 38.32 -77.67 M0.05 1.29 C9.58 -6.78, 51.9 -33.83, 58.15 -47.32 C64.4 -60.81, 40.84 -74.65, 37.55 -79.64" stroke="#1e1e1e" stroke-width="2" fill="none"></path></g><g transform="translate(484.65552116083563 477.44255165519564) rotate(0 29.283989143638053 -39.19460060912513)"><path d="M54.49 -72.41 C47.16 -74.28, 41.3 -77.36, 37.55 -79.64 M54.49 -72.41 C47.97 -74.85, 42 -78.37, 37.55 -79.64" stroke="#1e1e1e" stroke-width="2" fill="none"></path></g><g transform="translate(484.65552116083563 477.44255165519564) rotate(0 29.283989143638053 -39.19460060912513)"><path d="M45.88 -63.22 C41.54 -68.4, 38.71 -74.71, 37.55 -79.64 M45.88 -63.22 C42.46 -68.97, 39.59 -75.79, 37.55 -79.64" stroke="#1e1e1e" stroke-width="2" fill="none"></path></g></g><mask></mask><g stroke-linecap="round"><g transform="translate(483.6911611821814 502.49235260244086) rotate(0 18.534706464328792 -43.65427398124967)"><path d="M0.97 0.08 C7.07 -10.1, 37.52 -47.08, 37.39 -61.74 C37.25 -76.39, 6.19 -83.55, 0.18 -87.87 M0.02 -0.93 C5.93 -10.87, 36.71 -46.06, 36.6 -60.38 C36.5 -74.7, 5.71 -82.45, -0.64 -86.85" stroke="#1e1e1e" stroke-width="2" fill="none"></path></g><g transform="translate(483.6911611821814 502.49235260244086) rotate(0 18.534706464328792 -43.65427398124967)"><path d="M21.79 -85.05 C13.81 -85, 4.98 -86.34, -0.64 -86.85 M21.79 -85.05 C16.34 -86.3, 10.03 -85.08, -0.64 -86.85" stroke="#1e1e1e" stroke-width="2" fill="none"></path></g><g transform="translate(483.6911611821814 502.49235260244086) rotate(0 18.534706464328792 -43.65427398124967)"><path d="M15.39 -71.06 C9.8 -76.12, 3.3 -82.53, -0.64 -86.85 M15.39 -71.06 C11.43 -75.82, 6.74 -78.15, -0.64 -86.85" stroke="#1e1e1e" stroke-width="2" fill="none"></path></g></g><mask></mask><g stroke-linecap="round"><g transform="translate(486.4166110761047 524.2727945285588) rotate(0 44.686548503379356 -66.12427409582)"><path d="M0.01 0.53 C14.88 -15.4, 82.78 -73.3, 88.85 -95.52 C94.91 -117.74, 45.41 -126.52, 36.4 -132.79 M-1.44 -0.24 C13.26 -15.97, 81.39 -72.12, 87.62 -94.03 C93.86 -115.95, 44.84 -125.34, 36 -131.75" stroke="#1e1e1e" stroke-width="2" fill="none"></path></g><g transform="translate(486.4166110761047 524.2727945285588) rotate(0 44.686548503379356 -66.12427409582)"><path d="M60.97 -130.52 C55.13 -131.72, 47.39 -130.01, 36 -131.75 M60.97 -130.52 C54.95 -130.46, 47.25 -130.87, 36 -131.75" stroke="#1e1e1e" stroke-width="2" fill="none"></path></g><g transform="translate(486.4166110761047 524.2727945285588) rotate(0 44.686548503379356 -66.12427409582)"><path d="M54.33 -114.76 C50.28 -120.2, 44.31 -122.72, 36 -131.75 M54.33 -114.76 C50.12 -118.67, 44.12 -123.09, 36 -131.75" stroke="#1e1e1e" stroke-width="2" fill="none"></path></g></g><mask></mask></svg>