<?xml version="1.0" standalone="no"?>
<!DOCTYPE svg PUBLIC "-//W3C//DTD SVG 1.1//EN" "http://www.w3.org/Graphics/SVG/1.1/DTD/svg11.dtd">
<svg version="1.1" xmlns="http://www.w3.org/2000/svg" viewBox="0 0 1783.5862103444244 831.6764477077362" width="1783.5862103444244" height="831.6764477077362"><!-- svg-source:excalidraw --><metadata></metadata><defs><style class="style-fonts">
      @font-face { font-family: Excalifont; src: url(https://esm.sh/@excalidraw/excalidraw/dist/prod/fonts/Excalifont/Excalifont-Regular-a88b72a24fb54c9f94e3b5fdaa7481c9.woff2); }</style></defs><rect x="0" y="0" width="1783.5862103444244" height="831.6764477077362" fill="#ffffff"></rect><g transform="translate(10 10) rotate(0 68.51249694824219 22.499999999999943)"><text x="0" y="31.716" font-family="Excalifont, Xiaolai, Segoe UI Emoji" font-size="36px" fill="#1e1e1e" text-anchor="start" style="white-space: pre;" direction="ltr" dominant-baseline="alphabetic">Runtime</text></g><g stroke-linecap="round" transform="translate(327.442727700791 362.1745293424582) rotate(0 56.99881481820489 17.5)"><path d="M8.75 0 C31.74 3.47, 57.29 -0.21, 105.25 0 C112.31 1.07, 112.02 0.49, 114 8.75 C112.55 13.05, 115.91 22.35, 114 26.25 C116.71 32.96, 114.34 36.97, 105.25 35 C82.91 35.36, 66.79 35.23, 8.75 35 C0.87 33.22, -1.22 32.24, 0 26.25 C1.33 20.1, 1.65 11.16, 0 8.75 C2.35 4.38, 2.15 2.37, 8.75 0" stroke="none" stroke-width="0" fill="#ffffff"></path><path d="M8.75 0 C31.33 0.92, 52.38 -0.93, 105.25 0 M8.75 0 C42.91 -0.42, 77.79 -0.3, 105.25 0 M105.25 0 C113.05 0.58, 112.88 4.43, 114 8.75 M105.25 0 C109.99 -1.41, 112.02 1.09, 114 8.75 M114 8.75 C114.1 13.52, 113.74 19.9, 114 26.25 M114 8.75 C114.75 12.92, 113.71 17.37, 114 26.25 M114 26.25 C112.04 31.64, 110.22 36.33, 105.25 35 M114 26.25 C112.44 33.39, 109.19 33.97, 105.25 35 M105.25 35 C73.5 36.64, 43.91 36.37, 8.75 35 M105.25 35 C74.02 34.98, 41.59 35.66, 8.75 35 M8.75 35 C3.31 36.75, 1.35 31.8, 0 26.25 M8.75 35 C4.88 33.03, -1.31 32.15, 0 26.25 M0 26.25 C-1.55 20.05, 0.26 16.22, 0 8.75 M0 26.25 C-0.54 21.79, 0.59 16.7, 0 8.75 M0 8.75 C-1.99 4.36, 2.88 1.07, 8.75 0 M0 8.75 C-2.29 3.92, 1.48 -1.98, 8.75 0" stroke="#1e1e1e" stroke-width="2" fill="none"></path></g><g transform="translate(337.99154175605645 367.1745293424582) rotate(0 46.45000076293945 12.5)"><text x="46.45000076293945" y="17.619999999999997" font-family="Excalifont, Xiaolai, Segoe UI Emoji" font-size="20px" fill="#1e1e1e" text-anchor="middle" style="white-space: pre;" direction="ltr" dominant-baseline="alphabetic">Bytecode</text></g><g transform="translate(321.76978779092997 250.86007643850633) rotate(0 81.125 50)"><text x="0" y="17.619999999999997" font-family="Excalifont, Xiaolai, Segoe UI Emoji" font-size="20px" fill="#1e1e1e" text-anchor="start" style="white-space: pre;" direction="ltr" dominant-baseline="alphabetic">Variable map</text><text x="0" y="42.62" font-family="Excalifont, Xiaolai, Segoe UI Emoji" font-size="20px" fill="#1e1e1e" text-anchor="start" style="white-space: pre;" direction="ltr" dominant-baseline="alphabetic">Process Stack</text><text x="0" y="67.62" font-family="Excalifont, Xiaolai, Segoe UI Emoji" font-size="20px" fill="#1e1e1e" text-anchor="start" style="white-space: pre;" direction="ltr" dominant-baseline="alphabetic">Result Stack</text><text x="0" y="92.62" font-family="Excalifont, Xiaolai, Segoe UI Emoji" font-size="20px" fill="#1e1e1e" text-anchor="start" style="white-space: pre;" direction="ltr" dominant-baseline="alphabetic">Program Counter</text></g><g stroke-linecap="round" transform="translate(309.4352461305607 237.2921286056561) rotate(0 125.50388446340969 146.1641930451841)"><path d="M32 0 C78.03 -0.65, 123.31 0.7, 219.01 0 M32 0 C81.16 0.22, 130.95 -1.15, 219.01 0 M219.01 0 C238.62 -1.59, 250.83 9.89, 251.01 32 M219.01 0 C241.44 0.22, 250.59 10.42, 251.01 32 M251.01 32 C249.22 114.5, 249.36 193.6, 251.01 260.33 M251.01 32 C248.73 80.49, 248.52 128.32, 251.01 260.33 M251.01 260.33 C249.36 280.77, 240.7 293.61, 219.01 292.33 M251.01 260.33 C252.93 280.46, 241.3 292.41, 219.01 292.33 M219.01 292.33 C157.53 291.99, 96.35 290.78, 32 292.33 M219.01 292.33 C150.18 293.82, 80.85 293.11, 32 292.33 M32 292.33 C9.53 292.39, -0.63 280.32, 0 260.33 M32 292.33 C12.49 290.14, -1.97 281.85, 0 260.33 M0 260.33 C0.56 198.68, 1.38 140.6, 0 32 M0 260.33 C1.92 177.46, 1.08 94.05, 0 32 M0 32 C-1.25 8.94, 9.52 -1.13, 32 0 M0 32 C-0.4 10.39, 12.69 1.08, 32 0" stroke="#1e1e1e" stroke-width="2" fill="none"></path></g><g mask="url(#mask-Lbj_Te_BTiJjufvSZkHsf)" stroke-linecap="round"><g transform="translate(530.0486922695945 423.23473399491957) rotate(0 -19.713477225843747 -66.70083835956154)"><path d="M-0.05 -0.54 C-1.19 -15.92, -0.1 -70.25, -6.46 -92.33 C-12.83 -114.42, -32.64 -126.36, -38.25 -133.05 M-1.53 1.79 C-2.79 -13.42, -0.87 -68.18, -7.01 -91.01 C-13.16 -113.84, -32.86 -127.95, -38.39 -135.21" stroke="#1e1e1e" stroke-width="2" fill="none"></path></g><g transform="translate(530.0486922695945 423.23473399491957) rotate(0 -19.713477225843747 -66.70083835956154)"><path d="M-15.98 -124.13 C-24.29 -126.54, -31.47 -129.5, -38.39 -135.21 M-15.98 -124.13 C-23.77 -128.22, -31.53 -132.05, -38.39 -135.21" stroke="#1e1e1e" stroke-width="2" fill="none"></path></g><g transform="translate(530.0486922695945 423.23473399491957) rotate(0 -19.713477225843747 -66.70083835956154)"><path d="M-28.35 -112.32 C-32.56 -118.62, -35.66 -125.49, -38.39 -135.21 M-28.35 -112.32 C-32 -120.39, -35.69 -128.1, -38.39 -135.21" stroke="#1e1e1e" stroke-width="2" fill="none"></path></g></g><mask id="mask-Lbj_Te_BTiJjufvSZkHsf"><rect x="0" y="0" fill="#fff" width="669.475646721282" height="656.6364107140427"></rect><rect x="496.42505555203047" y="321.3122963814276" fill="#000" width="52.79999923706055" height="20" opacity="1"></rect></mask><g transform="translate(496.4250555520306 321.3122963814276) rotate(0 14.403189517842236 35.208476224432275)"><text x="26.399999618530273" y="14.096" font-family="Excalifont, Xiaolai, Segoe UI Emoji" font-size="16px" fill="#1e1e1e" text-anchor="middle" style="white-space: pre;" direction="ltr" dominant-baseline="alphabetic">Access</text></g><g stroke-linecap="round" transform="translate(366.18259589378863 425.4626184227558) rotate(0 24.881982517726613 45.640050881385946)"><path d="M0 0 C18.66 -1.61, 37.68 -1.44, 49.76 0 M0 0 C11.8 0.01, 24.25 0.49, 49.76 0 M49.76 0 C49.04 26.25, 48.28 53.06, 49.76 91.28 M49.76 0 C48.43 21.61, 48.98 44.34, 49.76 91.28 M49.76 91.28 C37.32 91.23, 27.95 92.54, 0 91.28 M49.76 91.28 C37.72 91.6, 24.3 91.24, 0 91.28 M0 91.28 C1.4 58.87, 1.72 27.04, 0 0 M0 91.28 C-1.35 65.22, -1.09 38.43, 0 0" stroke="#1e1e1e" stroke-width="2" fill="none"></path></g><g stroke-linecap="round"><g transform="translate(366.18259589378863 509.0708230561712) rotate(0 26.11541692171079 -0.6167172019920599)"><path d="M0 0 C22.32 -1.15, 40.39 -2.41, 52.23 -1.23 M0 0 C11.99 0.03, 22.85 -0.45, 52.23 -1.23" stroke="#000" stroke-width="1" fill="none"></path></g></g><mask></mask><g transform="translate(371.3221742619462 437.1167154454632) rotate(0 18.391124332645518 8.565963946929628)"><text x="0" y="12.074582779592067" font-family="Excalifont, Xiaolai, Segoe UI Emoji" font-size="13.705542315087476px" fill="#1e1e1e" text-anchor="start" style="white-space: pre;" direction="ltr" dominant-baseline="alphabetic">code1</text></g><g transform="translate(371.3221742619462 459.5024380456056) rotate(0 20.26707122126055 8.565963946929628)"><text x="0" y="12.074582779592067" font-family="Excalifont, Xiaolai, Segoe UI Emoji" font-size="13.705542315087476px" fill="#1e1e1e" text-anchor="start" style="white-space: pre;" direction="ltr" dominant-baseline="alphabetic">code2</text></g><g transform="translate(370.5706892322248 481.13667561602676) rotate(0 19.62904811205567 8.565963946929628)"><text x="0" y="12.074582779592069" font-family="Excalifont, Xiaolai, Segoe UI Emoji" font-size="13.705542315087479px" fill="#1e1e1e" text-anchor="start" style="white-space: pre;" direction="ltr" dominant-baseline="alphabetic">code3</text></g><g stroke-linecap="round"><g transform="translate(381.35742437076055 398.7558717138694) rotate(0 -0.07996453396702918 6.830021279134485)"><path d="M0 0 C-0.03 2.28, -0.13 11.38, -0.16 13.66 M0 0 C-0.03 2.28, -0.13 11.38, -0.16 13.66" stroke="#1e1e1e" stroke-width="2" fill="none"></path></g><g transform="translate(381.35742437076055 398.7558717138694) rotate(0 -0.07996453396702918 6.830021279134485)"><path d="M-2.42 7.21 C-1.76 9.09, -1.1 10.97, -0.16 13.66 M-2.42 7.21 C-1.81 8.95, -1.21 10.68, -0.16 13.66" stroke="#1e1e1e" stroke-width="2" fill="none"></path></g><g transform="translate(381.35742437076055 398.7558717138694) rotate(0 -0.07996453396702918 6.830021279134485)"><path d="M2.25 7.27 C1.55 9.13, 0.85 10.99, -0.16 13.66 M2.25 7.27 C1.6 8.99, 0.96 10.7, -0.16 13.66" stroke="#1e1e1e" stroke-width="2" fill="none"></path></g></g><mask></mask><g transform="translate(371.1078697378957 203.8895544179262) rotate(0 71.7750015258789 17.5)"><text x="0" y="24.668" font-family="Excalifont, Xiaolai, Segoe UI Emoji" font-size="28px" fill="#1e1e1e" text-anchor="start" style="white-space: pre;" direction="ltr" dominant-baseline="alphabetic">WyRuntime</text></g><g stroke-linecap="round" transform="translate(310.3292273026866 538.3087460985047) rotate(0 124.6471606621866 22.5)"><path d="M11.25 0 C74.63 -0.62, 137.88 0.31, 238.04 0 M11.25 0 C64.67 1.56, 119.4 2.32, 238.04 0 M238.04 0 C244.19 1.13, 247.65 2.86, 249.29 11.25 M238.04 0 C245.96 1.47, 251.22 2.55, 249.29 11.25 M249.29 11.25 C249.9 17.31, 249.19 27.81, 249.29 33.75 M249.29 11.25 C249.49 18.96, 249.97 24.78, 249.29 33.75 M249.29 33.75 C251 39.54, 244.41 45.06, 238.04 45 M249.29 33.75 C248.57 39.71, 247.37 42.81, 238.04 45 M238.04 45 C189.26 42.63, 141.18 42.91, 11.25 45 M238.04 45 C153.59 46.88, 70.82 46.72, 11.25 45 M11.25 45 C1.75 45.87, -1.25 39.53, 0 33.75 M11.25 45 C2.43 43.7, -0.4 40.97, 0 33.75 M0 33.75 C0.58 25.62, -1.2 14.95, 0 11.25 M0 33.75 C-0.77 25.95, 0.29 19.74, 0 11.25 M0 11.25 C1.51 4.24, 5.56 1.1, 11.25 0 M0 11.25 C-1.95 5.04, 4.81 -1, 11.25 0" stroke="#1e1e1e" stroke-width="2" fill="none"></path></g><g transform="translate(381.42638872781265 543.3087460985047) rotate(0 53.54999923706055 17.5)"><text x="53.54999923706055" y="24.668" font-family="Excalifont, Xiaolai, Segoe UI Emoji" font-size="28px" fill="#1e1e1e" text-anchor="middle" style="white-space: pre;" direction="ltr" dominant-baseline="alphabetic">Runtime</text></g><g stroke-linecap="round" transform="translate(310.28036930394137 593.8063085346001) rotate(0 124.6471606621866 45.38910219611523)"><path d="M22.69 0 C88.18 -2.16, 154.23 -3.22, 226.6 0 M22.69 0 C78.71 -0.7, 135.21 -1.61, 226.6 0 M226.6 0 C242.09 1.28, 250.97 6.52, 249.29 22.69 M226.6 0 C242.69 0.08, 249.94 8.25, 249.29 22.69 M249.29 22.69 C249.35 32.59, 250.7 42.92, 249.29 68.08 M249.29 22.69 C250.46 39.43, 249.03 57.91, 249.29 68.08 M249.29 68.08 C248.67 81.87, 243.32 88.88, 226.6 90.78 M249.29 68.08 C247.32 83.4, 240.9 90.53, 226.6 90.78 M226.6 90.78 C186.53 90.15, 145.16 87.53, 22.69 90.78 M226.6 90.78 C149.85 92.15, 74.32 90.99, 22.69 90.78 M22.69 90.78 C6.42 89.65, -0.35 82.97, 0 68.08 M22.69 90.78 C9.59 91.86, -0.33 84, 0 68.08 M0 68.08 C0.78 55.05, -0.85 37.03, 0 22.69 M0 68.08 C0.52 56.76, 0.67 45.48, 0 22.69 M0 22.69 C-1.69 8.68, 8.49 -0.87, 22.69 0 M0 22.69 C-0.28 9.54, 7.2 -1.31, 22.69 0" stroke="#1e1e1e" stroke-width="2" fill="none"></path></g><g transform="translate(330.51503149200687 604.1954107307155) rotate(0 104.4124984741211 35)"><text x="104.4124984741211" y="24.668" font-family="Excalifont, Xiaolai, Segoe UI Emoji" font-size="28px" fill="#1e1e1e" text-anchor="middle" style="white-space: pre;" direction="ltr" dominant-baseline="alphabetic">Base runtime</text><text x="104.4124984741211" y="59.668" font-family="Excalifont, Xiaolai, Segoe UI Emoji" font-size="28px" fill="#1e1e1e" text-anchor="middle" style="white-space: pre;" direction="ltr" dominant-baseline="alphabetic">(Key functions)</text></g><g stroke-linecap="round"><g transform="translate(288.184939525019 179.92652259140903) rotate(0 0 255.14872262715392)"><path d="M-1.18 -0.27 C-1.19 85.1, -0.58 425.89, -0.52 511.09 M0.41 -1.45 C0.23 83.67, -1.95 424.31, -1.74 509.39" stroke="#1e1e1e" stroke-width="2" fill="none"></path></g></g><mask></mask><g stroke-linecap="round"><g transform="translate(286.7772438999066 692.3355435034731) rotate(0 143.93905252362987 0)"><path d="M-0.52 0.8 C47.52 0.95, 239.16 0.9, 287.06 0.68 M1.41 0.17 C49.93 0, 241.37 -1.14, 289.35 -1.09" stroke="#1e1e1e" stroke-width="2" fill="none"></path></g></g><mask></mask><g stroke-linecap="round"><g transform="translate(575.35922897981 693.0394235361167) rotate(0 1.1368683772161603e-13 -254.44487481459782)"><path d="M-0.82 0.68 C-0.89 -84.36, -1.16 -424.63, -0.99 -509.43 M0.96 -0.01 C1.29 -84.96, 1.44 -423.16, 1.21 -508.17" stroke="#1e1e1e" stroke-width="2" fill="none"></path></g></g><mask></mask><g stroke-linecap="round"><g transform="translate(601.4020169055236 381.23007400081167) rotate(0 5.684341886080802e-14 -90.79776133852192)"><path d="M-0.99 -0.54 C-0.81 -30.79, -0.11 -150.55, 0.22 -180.83 M0.7 1.8 C0.8 -28.85, -0.63 -152.04, -0.62 -182.55" stroke="#1e1e1e" stroke-width="2" fill="none"></path></g><g transform="translate(601.4020169055236 381.23007400081167) rotate(0 5.684341886080802e-14 -90.79776133852192)"><path d="M8.08 -159.11 C5.04 -164.26, 5.19 -168.39, -0.62 -182.55 M8.08 -159.11 C6.11 -164.61, 2.86 -170.77, -0.62 -182.55" stroke="#1e1e1e" stroke-width="2" fill="none"></path></g><g transform="translate(601.4020169055236 381.23007400081167) rotate(0 5.684341886080802e-14 -90.79776133852192)"><path d="M-9.02 -159 C-8.1 -164.03, -3.97 -168.19, -0.62 -182.55 M-9.02 -159 C-6.75 -164.54, -5.77 -170.72, -0.62 -182.55" stroke="#1e1e1e" stroke-width="2" fill="none"></path></g></g><mask></mask><g transform="translate(587.3248673338765 283.46671458333265) rotate(0 74.0625 12.5)"><text x="0" y="17.619999999999997" font-family="Excalifont, Xiaolai, Segoe UI Emoji" font-size="20px" fill="#1e1e1e" text-anchor="start" style="white-space: pre;" direction="ltr" dominant-baseline="alphabetic">Calling function</text></g><g transform="translate(501.6265753615528 426.6484691581958) rotate(0 17.3125 30)"><text x="0" y="14.096" font-family="Excalifont, Xiaolai, Segoe UI Emoji" font-size="16px" fill="#1e1e1e" text-anchor="start" style="white-space: pre;" direction="ltr" dominant-baseline="alphabetic">exec</text><text x="0" y="34.096000000000004" font-family="Excalifont, Xiaolai, Segoe UI Emoji" font-size="16px" fill="#1e1e1e" text-anchor="start" style="white-space: pre;" direction="ltr" dominant-baseline="alphabetic">exec</text><text x="0" y="54.096000000000004" font-family="Excalifont, Xiaolai, Segoe UI Emoji" font-size="16px" fill="#1e1e1e" text-anchor="start" style="white-space: pre;" direction="ltr" dominant-baseline="alphabetic">exec</text></g><g stroke-linecap="round"><g transform="translate(420.29800480158815 440.73792921980646) rotate(0 35.446289379311224 -2.1041982904456518)"><path d="M0 0 C11.82 -0.7, 59.08 -3.51, 70.89 -4.21 M0 0 C11.82 -0.7, 59.08 -3.51, 70.89 -4.21" stroke="#1e1e1e" stroke-width="2" fill="none"></path></g><g transform="translate(420.29800480158815 440.73792921980646) rotate(0 35.446289379311224 -2.1041982904456518)"><path d="M47.95 5.72 C56.75 1.91, 65.55 -1.9, 70.89 -4.21 M47.95 5.72 C54.7 2.8, 61.46 -0.13, 70.89 -4.21" stroke="#1e1e1e" stroke-width="2" fill="none"></path></g><g transform="translate(420.29800480158815 440.73792921980646) rotate(0 35.446289379311224 -2.1041982904456518)"><path d="M46.93 -11.35 C56.13 -8.61, 65.32 -5.87, 70.89 -4.21 M46.93 -11.35 C53.99 -9.25, 61.04 -7.15, 70.89 -4.21" stroke="#1e1e1e" stroke-width="2" fill="none"></path></g></g><mask></mask><g stroke-linecap="round"><g transform="translate(422.457138028534 464.0930433625298) rotate(0 35.26638632009502 -2.8788854854212786)"><path d="M0 0 C11.76 -0.96, 58.78 -4.8, 70.53 -5.76 M0 0 C11.76 -0.96, 58.78 -4.8, 70.53 -5.76" stroke="#1e1e1e" stroke-width="2" fill="none"></path></g><g transform="translate(422.457138028534 464.0930433625298) rotate(0 35.26638632009502 -2.8788854854212786)"><path d="M47.81 4.68 C55.58 1.11, 63.34 -2.45, 70.53 -5.76 M47.81 4.68 C54.72 1.51, 61.62 -1.66, 70.53 -5.76" stroke="#1e1e1e" stroke-width="2" fill="none"></path></g><g transform="translate(422.457138028534 464.0930433625298) rotate(0 35.26638632009502 -2.8788854854212786)"><path d="M46.42 -12.37 C54.66 -10.11, 62.9 -7.85, 70.53 -5.76 M46.42 -12.37 C53.75 -10.36, 61.07 -8.35, 70.53 -5.76" stroke="#1e1e1e" stroke-width="2" fill="none"></path></g></g><mask></mask><g stroke-linecap="round"><g transform="translate(419.9381327906333 487.1241437190296) rotate(0 36.16603340122106 -3.7785325665473692)"><path d="M0 0 C12.06 -1.26, 60.28 -6.3, 72.33 -7.56 M0 0 C12.06 -1.26, 60.28 -6.3, 72.33 -7.56" stroke="#1e1e1e" stroke-width="2" fill="none"></path></g><g transform="translate(419.9381327906333 487.1241437190296) rotate(0 36.16603340122106 -3.7785325665473692)"><path d="M49.86 3.39 C57.23 -0.2, 64.61 -3.8, 72.33 -7.56 M49.86 3.39 C58.21 -0.68, 66.56 -4.75, 72.33 -7.56" stroke="#1e1e1e" stroke-width="2" fill="none"></path></g><g transform="translate(419.9381327906333 487.1241437190296) rotate(0 36.16603340122106 -3.7785325665473692)"><path d="M48.08 -13.62 C56.04 -11.63, 64 -9.64, 72.33 -7.56 M48.08 -13.62 C57.09 -11.37, 66.11 -9.11, 72.33 -7.56" stroke="#1e1e1e" stroke-width="2" fill="none"></path></g></g><mask></mask><g stroke-linecap="round"><g transform="translate(288.0529963786439 690.9322912566003) rotate(0 0 24.60493698060509)"><path d="M0.33 0.02 C0.4 8.29, 0.03 41.33, -0.01 49.6 M-0.17 -0.44 C-0.13 7.68, -0.44 40.62, -0.44 48.84" stroke="#1e1e1e" stroke-width="2" fill="none"></path></g></g><mask></mask><g stroke-linecap="round"><g transform="translate(575.9307778238015 686.4213986582075) rotate(0 -0.20504739886411016 27.065449450742904)"><path d="M-0.01 0.86 C-0.16 10.05, -0.25 46.33, -0.18 55.18 M-1.48 0.27 C-1.83 9.14, -1.26 44.46, -1 53.61" stroke="#1e1e1e" stroke-width="2" fill="none"></path></g></g><mask></mask><g stroke-linecap="round"><g transform="translate(286.41265473188537 740.9623548132671) rotate(0 145.37416619839598 0)"><path d="M0.23 1.05 C48.83 0.88, 242.97 0.18, 291.56 -0.17 M-1.1 0.56 C47.41 0.5, 242.26 1.41, 291.04 1.28" stroke="#1e1e1e" stroke-width="2" fill="none"></path></g></g><mask></mask><g transform="translate(340.53812489315055 706.1738532104517) rotate(0 90.2125015258789 12.5)"><text x="0" y="17.619999999999997" font-family="Excalifont, Xiaolai, Segoe UI Emoji" font-size="20px" fill="#1e1e1e" text-anchor="start" style="white-space: pre;" direction="ltr" dominant-baseline="alphabetic">Other Information</text></g><g mask="url(#mask-WvjdPmh3bjM0MCnaNuDXE)" stroke-linecap="round"><g transform="translate(533.4058880058208 491.1094745838308) rotate(0 -6.801097372452546 50.21716888934907)"><path d="M1.03 -1.03 C0.11 11.46, -2.18 58.01, -4.68 74.78 C-7.19 91.56, -12.65 95.54, -13.98 99.63 M0.11 1.05 C-0.49 13.76, 0.18 59.76, -2.33 76.34 C-4.84 92.92, -13.35 96.61, -14.94 100.52" stroke="#1e1e1e" stroke-width="2" fill="none"></path></g><g transform="translate(533.4058880058208 491.1094745838308) rotate(0 -6.801097372452546 50.21716888934907)"><path d="M-10.76 87.47 C-13.49 91.52, -13.81 96.67, -14.94 100.52 M-10.76 87.47 C-12.22 90.52, -12.85 93.44, -14.94 100.52" stroke="#1e1e1e" stroke-width="2" fill="none"></path></g><g transform="translate(533.4058880058208 491.1094745838308) rotate(0 -6.801097372452546 50.21716888934907)"><path d="M-3.35 93.21 C-8.79 95.22, -11.84 98.25, -14.94 100.52 M-3.35 93.21 C-6.58 94.86, -8.94 96.43, -14.94 100.52" stroke="#1e1e1e" stroke-width="2" fill="none"></path></g></g><mask id="mask-WvjdPmh3bjM0MCnaNuDXE"><rect x="0" y="0" fill="#fff" width="647.0080827507259" height="691.5438123625289"></rect><rect x="503.002635865563" y="555.8568954941575" fill="#000" width="52.79999923706055" height="20" opacity="1"></rect></mask><g transform="translate(503.002635865563 555.8568954941575) rotate(0 23.445021514751488 -14.999510179123945)"><text x="26.399999618530273" y="14.096" font-family="Excalifont, Xiaolai, Segoe UI Emoji" font-size="16px" fill="#1e1e1e" text-anchor="middle" style="white-space: pre;" direction="ltr" dominant-baseline="alphabetic">Access</text></g><g transform="translate(378.26898132066435 752.5753797179026) rotate(0 67.92500305175781 17.5)"><text x="0" y="24.668" font-family="Excalifont, Xiaolai, Segoe UI Emoji" font-size="28px" fill="#1e1e1e" text-anchor="start" style="white-space: pre;" direction="ltr" dominant-baseline="alphabetic">WyThread</text></g><g stroke-linecap="round" transform="translate(182.14069378273211 66.46397446787194) rotate(0 470.3599318886876 377.60623661993213)"><path d="M0 0 C251.92 -3.67, 505.42 -3.28, 940.72 0 M0 0 C271.69 -0.49, 544.21 -0.5, 940.72 0 M940.72 0 C943.33 150.75, 943.25 302.6, 940.72 755.21 M940.72 0 C938.92 161.4, 939.34 323.09, 940.72 755.21 M940.72 755.21 C671.54 755.79, 403.45 757.11, 0 755.21 M940.72 755.21 C710.52 753.79, 480.21 753.62, 0 755.21 M0 755.21 C-1.21 460.73, -2 165.41, 0 0 M0 755.21 C0.28 463.73, 0.5 172.92, 0 0" stroke="#1e1e1e" stroke-width="2" fill="none"></path></g><g transform="translate(267.12672754245455 70.51241080622765) rotate(0 72.73750305175781 17.5)"><text x="0" y="24.668" font-family="Excalifont, Xiaolai, Segoe UI Emoji" font-size="28px" fill="#1e1e1e" text-anchor="start" style="white-space: pre;" direction="ltr" dominant-baseline="alphabetic">WyProgram</text></g><g stroke-linecap="round"><g transform="translate(657.8792599912199 656.5969648153854) rotate(0 -44.30321208773131 -1.0361884369311838)"><path d="M-0.43 -0.13 C-15.22 -0.45, -74.92 -1.64, -89.78 -1.83 M1.54 -1.24 C-12.81 -1.96, -72.89 -3.51, -87.68 -3.82" stroke="#1e1e1e" stroke-width="4" fill="none"></path></g><g transform="translate(657.8792599912199 656.5969648153854) rotate(0 -44.30321208773131 -1.0361884369311838)"><path d="M-63.98 -11.8 C-69.27 -12.12, -73.73 -10.09, -87.68 -3.82 M-63.98 -11.8 C-73.67 -7.99, -81.43 -5.23, -87.68 -3.82" stroke="#1e1e1e" stroke-width="4" fill="none"></path></g><g transform="translate(657.8792599912199 656.5969648153854) rotate(0 -44.30321208773131 -1.0361884369311838)"><path d="M-64.4 5.3 C-69.61 1.31, -73.98 -0.32, -87.68 -3.82 M-64.4 5.3 C-74.02 2.81, -81.62 -0.74, -87.68 -3.82" stroke="#1e1e1e" stroke-width="4" fill="none"></path></g></g><mask></mask><g stroke-linecap="round" transform="translate(670.7269288266427 499.3317785393318) rotate(0 58.77560362806878 114.66651009150507)"><path d="M0 0 C31.43 -0.48, 63.43 2.1, 117.55 0 M0 0 C42.88 -0.31, 84.8 -0.41, 117.55 0 M117.55 0 C114.91 54.16, 115.66 110.4, 117.55 229.33 M117.55 0 C117.53 79.07, 116.7 159.3, 117.55 229.33 M117.55 229.33 C70.03 229.7, 25.7 230.19, 0 229.33 M117.55 229.33 C78.56 230.54, 41.73 229.54, 0 229.33 M0 229.33 C-2.64 162.53, -2.25 97.49, 0 0 M0 229.33 C0.43 137.89, 0.51 45.69, 0 0" stroke="#1e1e1e" stroke-width="2" fill="none"></path></g><g transform="translate(679.8025316917722 578.998288630837) rotate(0 49.70000076293945 35)"><text x="49.70000076293945" y="24.668" font-family="Excalifont, Xiaolai, Segoe UI Emoji" font-size="28px" fill="#1e1e1e" text-anchor="middle" style="white-space: pre;" direction="ltr" dominant-baseline="alphabetic">Wy</text><text x="49.70000076293945" y="59.668" font-family="Excalifont, Xiaolai, Segoe UI Emoji" font-size="28px" fill="#1e1e1e" text-anchor="middle" style="white-space: pre;" direction="ltr" dominant-baseline="alphabetic">Thread</text></g><g stroke-linecap="round"><g transform="translate(882.4972405030262 652.8972409145289) rotate(0 -41.70082136825056 0)"><path d="M0.57 0.78 C-13.37 0.79, -70.59 0.89, -84.59 0.86 M-0.59 0.14 C-14.09 -0.25, -68.57 -0.55, -82.51 -0.8" stroke="#1e1e1e" stroke-width="4" fill="none"></path></g><g transform="translate(882.4972405030262 652.8972409145289) rotate(0 -41.70082136825056 0)"><path d="M-58.92 -9.09 C-62.73 -9.15, -67.75 -5.39, -82.51 -0.8 M-58.92 -9.09 C-67.97 -6.92, -76.26 -3.69, -82.51 -0.8" stroke="#1e1e1e" stroke-width="4" fill="none"></path></g><g transform="translate(882.4972405030262 652.8972409145289) rotate(0 -41.70082136825056 0)"><path d="M-59.11 8.01 C-63 4.21, -67.97 4.23, -82.51 -0.8 M-59.11 8.01 C-67.93 4.13, -76.15 1.31, -82.51 -0.8" stroke="#1e1e1e" stroke-width="4" fill="none"></path></g></g><mask></mask><g stroke-linecap="round" transform="translate(894.0302242477012 499.3317784909667) rotate(0 58.77560362806878 114.66651009150507)"><path d="M0 0 C42.31 1.13, 82.8 -0.83, 117.55 0 M0 0 C39.82 0.45, 80.62 0.89, 117.55 0 M117.55 0 C119.04 89.48, 117.53 176.81, 117.55 229.33 M117.55 0 C118.96 74.51, 119.87 150.37, 117.55 229.33 M117.55 229.33 C74.52 228.7, 30.42 231.32, 0 229.33 M117.55 229.33 C87.25 229.77, 56.77 230, 0 229.33 M0 229.33 C-2.55 160.24, -1.49 90.6, 0 0 M0 229.33 C-1.46 169.12, -0.61 107.56, 0 0" stroke="#1e1e1e" stroke-width="2" fill="none"></path></g><g transform="translate(903.1058271128306 578.9982885824719) rotate(0 49.70000076293945 35)"><text x="49.70000076293945" y="24.668" font-family="Excalifont, Xiaolai, Segoe UI Emoji" font-size="28px" fill="#1e1e1e" text-anchor="middle" style="white-space: pre;" direction="ltr" dominant-baseline="alphabetic">Wy</text><text x="49.70000076293945" y="59.668" font-family="Excalifont, Xiaolai, Segoe UI Emoji" font-size="28px" fill="#1e1e1e" text-anchor="middle" style="white-space: pre;" direction="ltr" dominant-baseline="alphabetic">Thread</text></g><g transform="translate(713.9972377390891 332.7408680414827) rotate(0 83.2874984741211 17.5)"><text x="0" y="24.668" font-family="Excalifont, Xiaolai, Segoe UI Emoji" font-size="28px" fill="#1e1e1e" text-anchor="start" style="white-space: pre;" direction="ltr" dominant-baseline="alphabetic">ReadyQueue</text></g><g mask="url(#mask-yMeyrgLBlU4pWehVKycB0)" stroke-linecap="round"><g transform="translate(1184.044722639733 218.89340160014024) rotate(0 164.41928031087855 0)"><path d="M-0.75 -1.03 C54.14 -1.24, 273.26 -0.83, 328.15 -0.68 M1.06 1.04 C56.44 0.94, 276.05 0.49, 330.5 0.5" stroke="#1e1e1e" stroke-width="2" fill="none"></path></g><g transform="translate(1184.044722639733 218.89340160014024) rotate(0 164.41928031087855 0)"><path d="M307.02 9.08 C309.96 6.36, 315.26 5.44, 330.5 0.5 M307.02 9.08 C313.56 6.84, 320.76 3.48, 330.5 0.5" stroke="#1e1e1e" stroke-width="2" fill="none"></path></g><g transform="translate(1184.044722639733 218.89340160014024) rotate(0 164.41928031087855 0)"><path d="M307 -8.02 C310.02 -7.31, 315.32 -4.81, 330.5 0.5 M307 -8.02 C313.7 -5.34, 320.9 -3.78, 330.5 0.5" stroke="#1e1e1e" stroke-width="2" fill="none"></path></g></g><mask id="mask-yMeyrgLBlU4pWehVKycB0"><rect x="0" y="0" fill="#fff" width="1612.88328326149" height="318.89340160014024"></rect><rect x="1245.3640044764902" y="201.39340160014035" fill="#000" width="206.1999969482422" height="35" opacity="1"></rect></mask><g transform="translate(1245.3640044764907 201.39340160014024) rotate(0 103.55719976545777 17.473815323443432)"><text x="103.0999984741211" y="24.668" font-family="Excalifont, Xiaolai, Segoe UI Emoji" font-size="28px" fill="#1e1e1e" text-anchor="middle" style="white-space: pre;" direction="ltr" dominant-baseline="alphabetic">Request Queue</text></g><g transform="translate(848.8002173012787 206.08141441978694) rotate(0 158.1374969482422 17.5)"><text x="0" y="24.668" font-family="Excalifont, Xiaolai, Segoe UI Emoji" font-size="28px" fill="#1e1e1e" text-anchor="start" style="white-space: pre;" direction="ltr" dominant-baseline="alphabetic">Program running thread</text></g><g transform="translate(1534.2362042409088 202.87844206143825) rotate(0 119.67500305175781 17.5)"><text x="0" y="24.668" font-family="Excalifont, Xiaolai, Segoe UI Emoji" font-size="28px" fill="#1e1e1e" text-anchor="start" style="white-space: pre;" direction="ltr" dominant-baseline="alphabetic">Minecraft Thread</text></g><g stroke-linecap="round"><g transform="translate(1266.2543139216925 243.44953930530608) rotate(0 -9.60891707504561 46.44307475931396)"><path d="M-0.17 0.41 C-3.36 6.76, -14.78 23.22, -18.09 38.69 C-21.4 54.16, -20.03 84.28, -20.03 93.2 M-1.72 -0.42 C-5.13 6.03, -16.21 24.03, -18.85 39.88 C-21.49 55.73, -17.22 85.84, -17.55 94.69" stroke="#1e1e1e" stroke-width="2" fill="none"></path></g><g transform="translate(1266.2543139216925 243.44953930530608) rotate(0 -9.60891707504561 46.44307475931396)"><path d="M-27.26 71.65 C-22.7 81.2, -20.72 88.2, -17.55 94.69 M-27.26 71.65 C-24.42 78.78, -20.19 87.44, -17.55 94.69" stroke="#1e1e1e" stroke-width="2" fill="none"></path></g><g transform="translate(1266.2543139216925 243.44953930530608) rotate(0 -9.60891707504561 46.44307475931396)"><path d="M-10.18 70.8 C-12.25 80.66, -16.89 87.98, -17.55 94.69 M-10.18 70.8 C-12.91 78.11, -14.25 87.05, -17.55 94.69" stroke="#1e1e1e" stroke-width="2" fill="none"></path></g></g><mask></mask><g transform="translate(1207.533023689357 353.41824065077924) rotate(0 137.3874969482422 52.5)"><text x="0" y="24.668" font-family="Excalifont, Xiaolai, Segoe UI Emoji" font-size="28px" fill="#1e1e1e" text-anchor="start" style="white-space: pre;" direction="ltr" dominant-baseline="alphabetic">Javacall</text><text x="0" y="59.668" font-family="Excalifont, Xiaolai, Segoe UI Emoji" font-size="28px" fill="#1e1e1e" text-anchor="start" style="white-space: pre;" direction="ltr" dominant-baseline="alphabetic">Args                xN</text><text x="0" y="94.668" font-family="Excalifont, Xiaolai, Segoe UI Emoji" font-size="28px" fill="#1e1e1e" text-anchor="start" style="white-space: pre;" direction="ltr" dominant-baseline="alphabetic">Blocked Thread</text></g></svg>